<?xml version="1.0" encoding="UTF-8" standalone="no"?>
<!DOCTYPE svg PUBLIC "-//W3C//DTD SVG 1.1//EN"
 "http://www.w3.org/Graphics/SVG/1.1/DTD/svg11.dtd">
<!-- Generated by graphviz version 2.43.0 (0)
 -->
<!-- Title: G Pages: 1 -->
<svg width="2673pt" height="540pt"
 viewBox="0.00 0.00 2673.00 540.00" xmlns="http://www.w3.org/2000/svg" xmlns:xlink="http://www.w3.org/1999/xlink">
<g id="graph0" class="graph" transform="scale(1 1) rotate(0) translate(4 536)">
<title>G</title>
<polygon fill="white" stroke="transparent" points="-4,4 -4,-536 2669,-536 2669,4 -4,4"/>
<g id="clust1" class="cluster">
<title>cluster_module.k3s</title>
<polygon fill="none" stroke="black" points="390,-207 390,-524 2471,-524 2471,-207 390,-207"/>
<text text-anchor="middle" x="1430.5" y="-508.8" font-family="sans-serif" font-size="14.00">module.k3s</text>
</g>
<!-- data.tencentcloud_availability_zones_by_product.default -->
<g id="node1" class="node">
<title>data.tencentcloud_availability_zones_by_product.default</title>
<polygon fill="none" stroke="black" points="712,-90 305,-90 305,-54 712,-54 712,-90"/>
<text text-anchor="middle" x="508.5" y="-68.3" font-family="sans-serif" font-size="14.00">data.tencentcloud_availability_zones_by_product.default</text>
</g>
<!-- data.tencentcloud_images.default -->
<g id="node2" class="node">
<title>data.tencentcloud_images.default</title>
<polygon fill="none" stroke="black" points="634.5,-36 382.5,-36 382.5,0 634.5,0 634.5,-36"/>
<text text-anchor="middle" x="508.5" y="-14.3" font-family="sans-serif" font-size="14.00">data.tencentcloud_images.default</text>
</g>
<!-- data.tencentcloud_instance_types.default -->
<g id="node3" class="node">
<title>data.tencentcloud_instance_types.default</title>
<polygon fill="none" stroke="black" points="661,-198 356,-198 356,-162 661,-162 661,-198"/>
<text text-anchor="middle" x="508.5" y="-176.3" font-family="sans-serif" font-size="14.00">data.tencentcloud_instance_types.default</text>
</g>
<!-- helm_release.argo_cd -->
<g id="node4" class="node">
<title>helm_release.argo_cd</title>
<polygon fill="none" stroke="black" points="2665,-248 2499,-248 2499,-212 2665,-212 2665,-248"/>
<text text-anchor="middle" x="2582" y="-226.3" font-family="sans-serif" font-size="14.00">helm_release.argo_cd</text>
</g>
<!-- local_sensitive_file.kubeconfig -->
<g id="node5" class="node">
<title>local_sensitive_file.kubeconfig</title>
<polygon fill="none" stroke="black" points="1633,-199 1408,-199 1408,-163 1633,-163 1633,-199"/>
<text text-anchor="middle" x="1520.5" y="-177.3" font-family="sans-serif" font-size="14.00">local_sensitive_file.kubeconfig</text>
</g>
<!-- helm_release.argo_cd&#45;&gt;local_sensitive_file.kubeconfig -->
<g id="edge1" class="edge">
<title>helm_release.argo_cd&#45;&gt;local_sensitive_file.kubeconfig</title>
<path fill="none" stroke="black" d="M2517.76,-211.99C2502.56,-208.35 2486.3,-205.03 2471,-203 2175.82,-163.83 1824.61,-168.97 1643.3,-175.4"/>
<polygon fill="black" stroke="black" points="1643.07,-171.91 1633.2,-175.77 1643.32,-178.91 1643.07,-171.91"/>
</g>
<!-- module.k3s.null_resource.kubernetes_ready -->
<g id="node17" class="node">
<title>module.k3s.null_resource.kubernetes_ready</title>
<polygon fill="none" stroke="black" points="2463,-294 2227,-294 2227,-258 2463,-258 2463,-294"/>
<text text-anchor="middle" x="2345" y="-272.3" font-family="sans-serif" font-size="14.00">null_resource.kubernetes_ready</text>
</g>
<!-- helm_release.argo_cd&#45;&gt;module.k3s.null_resource.kubernetes_ready -->
<g id="edge2" class="edge">
<title>helm_release.argo_cd&#45;&gt;module.k3s.null_resource.kubernetes_ready</title>
<path fill="none" stroke="black" d="M2498.81,-246.09C2482.43,-249.29 2465.05,-252.7 2448.1,-256.01"/>
<polygon fill="black" stroke="black" points="2447.32,-252.6 2438.18,-257.96 2448.67,-259.47 2447.32,-252.6"/>
</g>
<!-- tencentcloud_instance.web -->
<g id="node6" class="node">
<title>tencentcloud_instance.web</title>
<polygon fill="none" stroke="black" points="999,-171 794,-171 794,-135 999,-135 999,-171"/>
<text text-anchor="middle" x="896.5" y="-149.3" font-family="sans-serif" font-size="14.00">tencentcloud_instance.web</text>
</g>
<!-- local_sensitive_file.kubeconfig&#45;&gt;tencentcloud_instance.web -->
<g id="edge3" class="edge">
<title>local_sensitive_file.kubeconfig&#45;&gt;tencentcloud_instance.web</title>
<path fill="none" stroke="black" d="M1407.94,-175.98C1295.19,-170.9 1121.95,-163.1 1009.16,-158.03"/>
<polygon fill="black" stroke="black" points="1009.26,-154.53 999.12,-157.57 1008.95,-161.52 1009.26,-154.53"/>
</g>
<!-- module.k3s.tls_locally_signed_cert.master_user -->
<g id="node25" class="node">
<title>module.k3s.tls_locally_signed_cert.master_user</title>
<polygon fill="none" stroke="black" points="1357,-305 1096,-305 1096,-269 1357,-269 1357,-305"/>
<text text-anchor="middle" x="1226.5" y="-283.3" font-family="sans-serif" font-size="14.00">tls_locally_signed_cert.master_user</text>
</g>
<!-- local_sensitive_file.kubeconfig&#45;&gt;module.k3s.tls_locally_signed_cert.master_user -->
<g id="edge4" class="edge">
<title>local_sensitive_file.kubeconfig&#45;&gt;module.k3s.tls_locally_signed_cert.master_user</title>
<path fill="none" stroke="black" d="M1414.29,-199.06C1412.14,-200.29 1410.03,-201.61 1408,-203 1383.29,-219.95 1396.8,-243.18 1372,-260 1369.83,-261.47 1367.6,-262.87 1365.32,-264.2"/>
<polygon fill="black" stroke="black" points="1363.49,-261.2 1356.29,-268.97 1366.77,-267.39 1363.49,-261.2"/>
</g>
<!-- tencentcloud_instance.web&#45;&gt;data.tencentcloud_availability_zones_by_product.default -->
<g id="edge5" class="edge">
<title>tencentcloud_instance.web&#45;&gt;data.tencentcloud_availability_zones_by_product.default</title>
<path fill="none" stroke="black" d="M842.26,-134.97C805.93,-123.26 756.5,-108.46 712,-99 699.56,-96.36 686.63,-93.92 673.59,-91.69"/>
<polygon fill="black" stroke="black" points="674.05,-88.22 663.61,-90.03 672.9,-95.13 674.05,-88.22"/>
</g>
<!-- tencentcloud_instance.web&#45;&gt;data.tencentcloud_images.default -->
<g id="edge6" class="edge">
<title>tencentcloud_instance.web&#45;&gt;data.tencentcloud_images.default</title>
<path fill="none" stroke="black" d="M871.82,-134.8C838.26,-110.05 774.03,-66.4 712,-45 690.75,-37.67 667.62,-32.31 644.83,-28.4"/>
<polygon fill="black" stroke="black" points="645.17,-24.91 634.74,-26.76 644.05,-31.82 645.17,-24.91"/>
</g>
<!-- tencentcloud_instance.web&#45;&gt;data.tencentcloud_instance_types.default -->
<g id="edge7" class="edge">
<title>tencentcloud_instance.web&#45;&gt;data.tencentcloud_instance_types.default</title>
<path fill="none" stroke="black" d="M793.83,-160.11C756.38,-162.73 712.96,-165.77 671.5,-168.67"/>
<polygon fill="black" stroke="black" points="671.03,-165.19 661.29,-169.38 671.51,-172.18 671.03,-165.19"/>
</g>
<!-- tencentcloud_security_group_lite_rule.default -->
<g id="node8" class="node">
<title>tencentcloud_security_group_lite_rule.default</title>
<polygon fill="none" stroke="black" points="674,-144 343,-144 343,-108 674,-108 674,-144"/>
<text text-anchor="middle" x="508.5" y="-122.3" font-family="sans-serif" font-size="14.00">tencentcloud_security_group_lite_rule.default</text>
</g>
<!-- tencentcloud_instance.web&#45;&gt;tencentcloud_security_group_lite_rule.default -->
<g id="edge8" class="edge">
<title>tencentcloud_instance.web&#45;&gt;tencentcloud_security_group_lite_rule.default</title>
<path fill="none" stroke="black" d="M793.83,-145.89C760.2,-143.54 721.77,-140.85 684.26,-138.22"/>
<polygon fill="black" stroke="black" points="684.45,-134.73 674.23,-137.52 683.96,-141.71 684.45,-134.73"/>
</g>
<!-- tencentcloud_security_group.default -->
<g id="node7" class="node">
<title>tencentcloud_security_group.default</title>
<polygon fill="none" stroke="black" points="269,-144 0,-144 0,-108 269,-108 269,-144"/>
<text text-anchor="middle" x="134.5" y="-122.3" font-family="sans-serif" font-size="14.00">tencentcloud_security_group.default</text>
</g>
<!-- tencentcloud_security_group_lite_rule.default&#45;&gt;tencentcloud_security_group.default -->
<g id="edge9" class="edge">
<title>tencentcloud_security_group_lite_rule.default&#45;&gt;tencentcloud_security_group.default</title>
<path fill="none" stroke="black" d="M342.98,-126C321.76,-126 300.15,-126 279.29,-126"/>
<polygon fill="black" stroke="black" points="279.12,-122.5 269.12,-126 279.12,-129.5 279.12,-122.5"/>
</g>
<!-- module.k3s.data.http.k3s_installer -->
<g id="node9" class="node">
<title>module.k3s.data.http.k3s_installer</title>
<polygon fill="none" stroke="black" points="1312.5,-359 1140.5,-359 1140.5,-323 1312.5,-323 1312.5,-359"/>
<text text-anchor="middle" x="1226.5" y="-337.3" font-family="sans-serif" font-size="14.00">data.http.k3s_installer</text>
</g>
<!-- module.k3s.data.http.k3s_version -->
<g id="node10" class="node">
<title>module.k3s.data.http.k3s_version</title>
<polygon fill="none" stroke="black" points="980,-359 813,-359 813,-323 980,-323 980,-359"/>
<text text-anchor="middle" x="896.5" y="-337.3" font-family="sans-serif" font-size="14.00">data.http.k3s_version</text>
</g>
<!-- module.k3s.data.http.k3s_installer&#45;&gt;module.k3s.data.http.k3s_version -->
<g id="edge10" class="edge">
<title>module.k3s.data.http.k3s_installer&#45;&gt;module.k3s.data.http.k3s_version</title>
<path fill="none" stroke="black" d="M1140.18,-341C1094.2,-341 1037.41,-341 990.33,-341"/>
<polygon fill="black" stroke="black" points="990.13,-337.5 980.13,-341 990.13,-344.5 990.13,-337.5"/>
</g>
<!-- module.k3s.null_resource.agents_annotation -->
<g id="node11" class="node">
<title>module.k3s.null_resource.agents_annotation</title>
<polygon fill="none" stroke="black" points="2191,-439 1950,-439 1950,-403 2191,-403 2191,-439"/>
<text text-anchor="middle" x="2070.5" y="-417.3" font-family="sans-serif" font-size="14.00">null_resource.agents_annotation</text>
</g>
<!-- module.k3s.null_resource.agents_install -->
<g id="node13" class="node">
<title>module.k3s.null_resource.agents_install</title>
<polygon fill="none" stroke="black" points="1895.5,-467 1687.5,-467 1687.5,-431 1895.5,-431 1895.5,-467"/>
<text text-anchor="middle" x="1791.5" y="-445.3" font-family="sans-serif" font-size="14.00">null_resource.agents_install</text>
</g>
<!-- module.k3s.null_resource.agents_annotation&#45;&gt;module.k3s.null_resource.agents_install -->
<g id="edge11" class="edge">
<title>module.k3s.null_resource.agents_annotation&#45;&gt;module.k3s.null_resource.agents_install</title>
<path fill="none" stroke="black" d="M1949.61,-433.12C1935,-434.6 1920.11,-436.1 1905.6,-437.57"/>
<polygon fill="black" stroke="black" points="1905.22,-434.09 1895.62,-438.58 1905.93,-441.05 1905.22,-434.09"/>
</g>
<!-- module.k3s.null_resource.agents_drain -->
<g id="node12" class="node">
<title>module.k3s.null_resource.agents_drain</title>
<polygon fill="none" stroke="black" points="2172,-493 1969,-493 1969,-457 2172,-457 2172,-493"/>
<text text-anchor="middle" x="2070.5" y="-471.3" font-family="sans-serif" font-size="14.00">null_resource.agents_drain</text>
</g>
<!-- module.k3s.null_resource.agents_drain&#45;&gt;module.k3s.null_resource.agents_install -->
<g id="edge12" class="edge">
<title>module.k3s.null_resource.agents_drain&#45;&gt;module.k3s.null_resource.agents_install</title>
<path fill="none" stroke="black" d="M1968.71,-465.54C1948.24,-463.62 1926.58,-461.58 1905.71,-459.63"/>
<polygon fill="black" stroke="black" points="1905.82,-456.12 1895.54,-458.67 1905.17,-463.09 1905.82,-456.12"/>
</g>
<!-- module.k3s.null_resource.servers_install -->
<g id="node20" class="node">
<title>module.k3s.null_resource.servers_install</title>
<polygon fill="none" stroke="black" points="1626.5,-359 1414.5,-359 1414.5,-323 1626.5,-323 1626.5,-359"/>
<text text-anchor="middle" x="1520.5" y="-337.3" font-family="sans-serif" font-size="14.00">null_resource.servers_install</text>
</g>
<!-- module.k3s.null_resource.agents_install&#45;&gt;module.k3s.null_resource.servers_install -->
<g id="edge13" class="edge">
<title>module.k3s.null_resource.agents_install&#45;&gt;module.k3s.null_resource.servers_install</title>
<path fill="none" stroke="black" d="M1696.51,-430.93C1687.11,-428.28 1677.8,-425.32 1669,-422 1628.99,-406.92 1586.52,-382.61 1557.47,-364.55"/>
<polygon fill="black" stroke="black" points="1559.24,-361.52 1548.91,-359.16 1555.51,-367.45 1559.24,-361.52"/>
</g>
<!-- module.k3s.null_resource.agents_label -->
<g id="node14" class="node">
<title>module.k3s.null_resource.agents_label</title>
<polygon fill="none" stroke="black" points="2170.5,-331 1970.5,-331 1970.5,-295 2170.5,-295 2170.5,-331"/>
<text text-anchor="middle" x="2070.5" y="-309.3" font-family="sans-serif" font-size="14.00">null_resource.agents_label</text>
</g>
<!-- module.k3s.null_resource.agents_label&#45;&gt;module.k3s.null_resource.agents_install -->
<g id="edge14" class="edge">
<title>module.k3s.null_resource.agents_label&#45;&gt;module.k3s.null_resource.agents_install</title>
<path fill="none" stroke="black" d="M1970.39,-327.34C1963.07,-330.76 1956.15,-334.93 1950,-340 1919.29,-365.32 1944.75,-396.73 1914,-422 1911.03,-424.44 1907.88,-426.67 1904.6,-428.72"/>
<polygon fill="black" stroke="black" points="1902.68,-425.78 1895.63,-433.68 1906.07,-431.9 1902.68,-425.78"/>
</g>
<!-- module.k3s.null_resource.agents_taint -->
<g id="node15" class="node">
<title>module.k3s.null_resource.agents_taint</title>
<polygon fill="none" stroke="black" points="2169.5,-385 1971.5,-385 1971.5,-349 2169.5,-349 2169.5,-385"/>
<text text-anchor="middle" x="2070.5" y="-363.3" font-family="sans-serif" font-size="14.00">null_resource.agents_taint</text>
</g>
<!-- module.k3s.null_resource.agents_taint&#45;&gt;module.k3s.null_resource.agents_install -->
<g id="edge15" class="edge">
<title>module.k3s.null_resource.agents_taint&#45;&gt;module.k3s.null_resource.agents_install</title>
<path fill="none" stroke="black" d="M1972.39,-385.09C1964.67,-387.68 1957.11,-390.64 1950,-394 1931.67,-402.66 1932.34,-413.37 1914,-422 1909.87,-423.94 1905.6,-425.75 1901.24,-427.42"/>
<polygon fill="black" stroke="black" points="1899.79,-424.23 1891.56,-430.9 1902.15,-430.82 1899.79,-424.23"/>
</g>
<!-- module.k3s.null_resource.k8s_ca_certificates_install -->
<g id="node16" class="node">
<title>module.k3s.null_resource.k8s_ca_certificates_install</title>
<polygon fill="none" stroke="black" points="1372,-251 1081,-251 1081,-215 1372,-215 1372,-251"/>
<text text-anchor="middle" x="1226.5" y="-229.3" font-family="sans-serif" font-size="14.00">null_resource.k8s_ca_certificates_install</text>
</g>
<!-- module.k3s.null_resource.k8s_ca_certificates_install&#45;&gt;tencentcloud_instance.web -->
<g id="edge16" class="edge">
<title>module.k3s.null_resource.k8s_ca_certificates_install&#45;&gt;tencentcloud_instance.web</title>
<path fill="none" stroke="black" d="M1151.48,-214.95C1100.98,-202.63 1033.99,-186.29 981.49,-173.49"/>
<polygon fill="black" stroke="black" points="982.08,-170.03 971.53,-171.06 980.42,-176.83 982.08,-170.03"/>
</g>
<!-- module.k3s.tls_self_signed_cert.kubernetes_ca_certs -->
<g id="node28" class="node">
<title>module.k3s.tls_self_signed_cert.kubernetes_ca_certs</title>
<polygon fill="none" stroke="black" points="1045,-251 748,-251 748,-215 1045,-215 1045,-251"/>
<text text-anchor="middle" x="896.5" y="-229.3" font-family="sans-serif" font-size="14.00">tls_self_signed_cert.kubernetes_ca_certs</text>
</g>
<!-- module.k3s.null_resource.k8s_ca_certificates_install&#45;&gt;module.k3s.tls_self_signed_cert.kubernetes_ca_certs -->
<g id="edge17" class="edge">
<title>module.k3s.null_resource.k8s_ca_certificates_install&#45;&gt;module.k3s.tls_self_signed_cert.kubernetes_ca_certs</title>
<path fill="none" stroke="black" d="M1080.68,-233C1072.17,-233 1063.59,-233 1055.03,-233"/>
<polygon fill="black" stroke="black" points="1055,-229.5 1045,-233 1055,-236.5 1055,-229.5"/>
</g>
<!-- module.k3s.null_resource.kubernetes_ready&#45;&gt;module.k3s.null_resource.agents_annotation -->
<g id="edge18" class="edge">
<title>module.k3s.null_resource.kubernetes_ready&#45;&gt;module.k3s.null_resource.agents_annotation</title>
<path fill="none" stroke="black" d="M2326,-294.23C2299.08,-320.41 2245.64,-368.3 2191,-394 2186.71,-396.02 2182.27,-397.88 2177.73,-399.62"/>
<polygon fill="black" stroke="black" points="2176.53,-396.33 2168.28,-402.99 2178.88,-402.92 2176.53,-396.33"/>
</g>
<!-- module.k3s.null_resource.kubernetes_ready&#45;&gt;module.k3s.null_resource.agents_drain -->
<g id="edge19" class="edge">
<title>module.k3s.null_resource.kubernetes_ready&#45;&gt;module.k3s.null_resource.agents_drain</title>
<path fill="none" stroke="black" d="M2333.34,-294.17C2311.49,-329.74 2257.95,-408.5 2191,-448 2187.93,-449.81 2184.75,-451.5 2181.49,-453.08"/>
<polygon fill="black" stroke="black" points="2179.83,-449.98 2172.1,-457.23 2182.66,-456.39 2179.83,-449.98"/>
</g>
<!-- module.k3s.null_resource.kubernetes_ready&#45;&gt;module.k3s.null_resource.agents_label -->
<g id="edge20" class="edge">
<title>module.k3s.null_resource.kubernetes_ready&#45;&gt;module.k3s.null_resource.agents_label</title>
<path fill="none" stroke="black" d="M2226.85,-291.91C2211.47,-293.99 2195.76,-296.13 2180.52,-298.2"/>
<polygon fill="black" stroke="black" points="2180.02,-294.73 2170.58,-299.55 2180.96,-301.67 2180.02,-294.73"/>
</g>
<!-- module.k3s.null_resource.kubernetes_ready&#45;&gt;module.k3s.null_resource.agents_taint -->
<g id="edge21" class="edge">
<title>module.k3s.null_resource.kubernetes_ready&#45;&gt;module.k3s.null_resource.agents_taint</title>
<path fill="none" stroke="black" d="M2306.02,-294.07C2275.48,-308.06 2231.18,-327.16 2191,-340 2183.96,-342.25 2176.62,-344.39 2169.21,-346.4"/>
<polygon fill="black" stroke="black" points="2168.21,-343.04 2159.43,-348.97 2169.99,-349.81 2168.21,-343.04"/>
</g>
<!-- module.k3s.null_resource.servers_annotation -->
<g id="node18" class="node">
<title>module.k3s.null_resource.servers_annotation</title>
<polygon fill="none" stroke="black" points="1914,-251 1669,-251 1669,-215 1914,-215 1914,-251"/>
<text text-anchor="middle" x="1791.5" y="-229.3" font-family="sans-serif" font-size="14.00">null_resource.servers_annotation</text>
</g>
<!-- module.k3s.null_resource.kubernetes_ready&#45;&gt;module.k3s.null_resource.servers_annotation -->
<g id="edge22" class="edge">
<title>module.k3s.null_resource.kubernetes_ready&#45;&gt;module.k3s.null_resource.servers_annotation</title>
<path fill="none" stroke="black" d="M2285.03,-257.97C2256.86,-250.23 2222.49,-242.05 2191,-238 2102.67,-226.63 2002.41,-225.43 1924.56,-227.05"/>
<polygon fill="black" stroke="black" points="1924.13,-223.56 1914.21,-227.28 1924.29,-230.56 1924.13,-223.56"/>
</g>
<!-- module.k3s.null_resource.servers_drain -->
<g id="node19" class="node">
<title>module.k3s.null_resource.servers_drain</title>
<polygon fill="none" stroke="black" points="1895,-305 1688,-305 1688,-269 1895,-269 1895,-305"/>
<text text-anchor="middle" x="1791.5" y="-283.3" font-family="sans-serif" font-size="14.00">null_resource.servers_drain</text>
</g>
<!-- module.k3s.null_resource.kubernetes_ready&#45;&gt;module.k3s.null_resource.servers_drain -->
<g id="edge23" class="edge">
<title>module.k3s.null_resource.kubernetes_ready&#45;&gt;module.k3s.null_resource.servers_drain</title>
<path fill="none" stroke="black" d="M2248.8,-258C2229.73,-255.08 2209.78,-252.52 2191,-251 2084.24,-242.34 2056.31,-237.91 1950,-251 1933.63,-253.02 1930.05,-256.21 1914,-260 1904.54,-262.23 1894.65,-264.52 1884.77,-266.76"/>
<polygon fill="black" stroke="black" points="1883.9,-263.37 1874.92,-268.99 1885.44,-270.2 1883.9,-263.37"/>
</g>
<!-- module.k3s.null_resource.servers_label -->
<g id="node21" class="node">
<title>module.k3s.null_resource.servers_label</title>
<polygon fill="none" stroke="black" points="1893.5,-359 1689.5,-359 1689.5,-323 1893.5,-323 1893.5,-359"/>
<text text-anchor="middle" x="1791.5" y="-337.3" font-family="sans-serif" font-size="14.00">null_resource.servers_label</text>
</g>
<!-- module.k3s.null_resource.kubernetes_ready&#45;&gt;module.k3s.null_resource.servers_label -->
<g id="edge24" class="edge">
<title>module.k3s.null_resource.kubernetes_ready&#45;&gt;module.k3s.null_resource.servers_label</title>
<path fill="none" stroke="black" d="M2226.53,-263.43C2128.46,-254.95 1997.34,-248.89 1950,-271 1927.42,-281.55 1935.3,-301.05 1914,-314 1910.42,-316.18 1906.68,-318.18 1902.83,-320.02"/>
<polygon fill="black" stroke="black" points="1901.42,-316.82 1893.67,-324.04 1904.23,-323.23 1901.42,-316.82"/>
</g>
<!-- module.k3s.null_resource.servers_taint -->
<g id="node22" class="node">
<title>module.k3s.null_resource.servers_taint</title>
<polygon fill="none" stroke="black" points="1893,-413 1690,-413 1690,-377 1893,-377 1893,-413"/>
<text text-anchor="middle" x="1791.5" y="-391.3" font-family="sans-serif" font-size="14.00">null_resource.servers_taint</text>
</g>
<!-- module.k3s.null_resource.kubernetes_ready&#45;&gt;module.k3s.null_resource.servers_taint -->
<g id="edge25" class="edge">
<title>module.k3s.null_resource.kubernetes_ready&#45;&gt;module.k3s.null_resource.servers_taint</title>
<path fill="none" stroke="black" d="M2226.89,-272.69C2119.1,-270.65 1972.58,-270.84 1950,-286 1916.95,-308.19 1944.75,-342.73 1914,-368 1910.38,-370.97 1906.5,-373.64 1902.44,-376.02"/>
<polygon fill="black" stroke="black" points="1900.51,-373.08 1893.26,-380.81 1903.75,-379.29 1900.51,-373.08"/>
</g>
<!-- module.k3s.null_resource.servers_annotation&#45;&gt;module.k3s.null_resource.servers_install -->
<g id="edge26" class="edge">
<title>module.k3s.null_resource.servers_annotation&#45;&gt;module.k3s.null_resource.servers_install</title>
<path fill="none" stroke="black" d="M1696.51,-251.07C1687.11,-253.72 1677.8,-256.68 1669,-260 1628.99,-275.08 1586.52,-299.39 1557.47,-317.45"/>
<polygon fill="black" stroke="black" points="1555.51,-314.55 1548.91,-322.84 1559.24,-320.48 1555.51,-314.55"/>
</g>
<!-- module.k3s.null_resource.servers_drain&#45;&gt;module.k3s.null_resource.servers_install -->
<g id="edge27" class="edge">
<title>module.k3s.null_resource.servers_drain&#45;&gt;module.k3s.null_resource.servers_install</title>
<path fill="none" stroke="black" d="M1700.55,-305.06C1675.09,-310.17 1647.23,-315.76 1621.23,-320.98"/>
<polygon fill="black" stroke="black" points="1620.48,-317.56 1611.36,-322.96 1621.86,-324.42 1620.48,-317.56"/>
</g>
<!-- module.k3s.null_resource.servers_install&#45;&gt;module.k3s.data.http.k3s_installer -->
<g id="edge28" class="edge">
<title>module.k3s.null_resource.servers_install&#45;&gt;module.k3s.data.http.k3s_installer</title>
<path fill="none" stroke="black" d="M1414.49,-341C1384.66,-341 1352.33,-341 1323.09,-341"/>
<polygon fill="black" stroke="black" points="1322.88,-337.5 1312.88,-341 1322.88,-344.5 1322.88,-337.5"/>
</g>
<!-- module.k3s.null_resource.servers_install&#45;&gt;module.k3s.null_resource.k8s_ca_certificates_install -->
<g id="edge29" class="edge">
<title>module.k3s.null_resource.servers_install&#45;&gt;module.k3s.null_resource.k8s_ca_certificates_install</title>
<path fill="none" stroke="black" d="M1492.73,-322.88C1464.08,-304.31 1416.7,-275.99 1372,-260 1365.7,-257.75 1359.18,-255.67 1352.55,-253.77"/>
<polygon fill="black" stroke="black" points="1353.33,-250.35 1342.76,-251.09 1351.48,-257.1 1353.33,-250.35"/>
</g>
<!-- module.k3s.random_password.k3s_cluster_secret -->
<g id="node23" class="node">
<title>module.k3s.random_password.k3s_cluster_secret</title>
<polygon fill="none" stroke="black" points="1364,-413 1089,-413 1089,-377 1364,-377 1364,-413"/>
<text text-anchor="middle" x="1226.5" y="-391.3" font-family="sans-serif" font-size="14.00">random_password.k3s_cluster_secret</text>
</g>
<!-- module.k3s.null_resource.servers_install&#45;&gt;module.k3s.random_password.k3s_cluster_secret -->
<g id="edge30" class="edge">
<title>module.k3s.null_resource.servers_install&#45;&gt;module.k3s.random_password.k3s_cluster_secret</title>
<path fill="none" stroke="black" d="M1421.86,-359.06C1393.98,-364.21 1363.45,-369.86 1335.01,-375.12"/>
<polygon fill="black" stroke="black" points="1334.24,-371.7 1325.05,-376.96 1335.52,-378.58 1334.24,-371.7"/>
</g>
<!-- module.k3s.null_resource.servers_label&#45;&gt;module.k3s.null_resource.servers_install -->
<g id="edge31" class="edge">
<title>module.k3s.null_resource.servers_label&#45;&gt;module.k3s.null_resource.servers_install</title>
<path fill="none" stroke="black" d="M1689.19,-341C1672.13,-341 1654.31,-341 1636.93,-341"/>
<polygon fill="black" stroke="black" points="1636.76,-337.5 1626.76,-341 1636.76,-344.5 1636.76,-337.5"/>
</g>
<!-- module.k3s.null_resource.servers_taint&#45;&gt;module.k3s.null_resource.servers_install -->
<g id="edge32" class="edge">
<title>module.k3s.null_resource.servers_taint&#45;&gt;module.k3s.null_resource.servers_install</title>
<path fill="none" stroke="black" d="M1700.55,-376.94C1675.09,-371.83 1647.23,-366.24 1621.23,-361.02"/>
<polygon fill="black" stroke="black" points="1621.86,-357.58 1611.36,-359.04 1620.48,-364.44 1621.86,-357.58"/>
</g>
<!-- module.k3s.tls_cert_request.master_user -->
<g id="node24" class="node">
<title>module.k3s.tls_cert_request.master_user</title>
<polygon fill="none" stroke="black" points="1005,-305 788,-305 788,-269 1005,-269 1005,-305"/>
<text text-anchor="middle" x="896.5" y="-283.3" font-family="sans-serif" font-size="14.00">tls_cert_request.master_user</text>
</g>
<!-- module.k3s.tls_private_key.master_user -->
<g id="node27" class="node">
<title>module.k3s.tls_private_key.master_user</title>
<polygon fill="none" stroke="black" points="612.5,-306 404.5,-306 404.5,-270 612.5,-270 612.5,-306"/>
<text text-anchor="middle" x="508.5" y="-284.3" font-family="sans-serif" font-size="14.00">tls_private_key.master_user</text>
</g>
<!-- module.k3s.tls_cert_request.master_user&#45;&gt;module.k3s.tls_private_key.master_user -->
<g id="edge33" class="edge">
<title>module.k3s.tls_cert_request.master_user&#45;&gt;module.k3s.tls_private_key.master_user</title>
<path fill="none" stroke="black" d="M787.98,-287.28C736.64,-287.41 675.18,-287.57 623.08,-287.71"/>
<polygon fill="black" stroke="black" points="622.78,-284.21 612.79,-287.73 622.8,-291.21 622.78,-284.21"/>
</g>
<!-- module.k3s.tls_locally_signed_cert.master_user&#45;&gt;module.k3s.tls_cert_request.master_user -->
<g id="edge34" class="edge">
<title>module.k3s.tls_locally_signed_cert.master_user&#45;&gt;module.k3s.tls_cert_request.master_user</title>
<path fill="none" stroke="black" d="M1095.87,-287C1069.31,-287 1041.49,-287 1015.37,-287"/>
<polygon fill="black" stroke="black" points="1015.07,-283.5 1005.07,-287 1015.07,-290.5 1015.07,-283.5"/>
</g>
<!-- module.k3s.tls_locally_signed_cert.master_user&#45;&gt;module.k3s.tls_self_signed_cert.kubernetes_ca_certs -->
<g id="edge35" class="edge">
<title>module.k3s.tls_locally_signed_cert.master_user&#45;&gt;module.k3s.tls_self_signed_cert.kubernetes_ca_certs</title>
<path fill="none" stroke="black" d="M1115.82,-268.94C1084.1,-263.72 1049.31,-257.99 1017.01,-252.68"/>
<polygon fill="black" stroke="black" points="1017.51,-249.21 1007.07,-251.04 1016.37,-256.12 1017.51,-249.21"/>
</g>
<!-- module.k3s.tls_private_key.kubernetes_ca -->
<g id="node26" class="node">
<title>module.k3s.tls_private_key.kubernetes_ca</title>
<polygon fill="none" stroke="black" points="619,-252 398,-252 398,-216 619,-216 619,-252"/>
<text text-anchor="middle" x="508.5" y="-230.3" font-family="sans-serif" font-size="14.00">tls_private_key.kubernetes_ca</text>
</g>
<!-- module.k3s.tls_self_signed_cert.kubernetes_ca_certs&#45;&gt;module.k3s.tls_private_key.kubernetes_ca -->
<g id="edge36" class="edge">
<title>module.k3s.tls_self_signed_cert.kubernetes_ca_certs&#45;&gt;module.k3s.tls_private_key.kubernetes_ca</title>
<path fill="none" stroke="black" d="M747.92,-233.38C708.82,-233.48 667.08,-233.59 629.63,-233.69"/>
<polygon fill="black" stroke="black" points="629.17,-230.19 619.18,-233.72 629.19,-237.19 629.17,-230.19"/>
</g>
</g>
</svg>
